<svg width="80" height="16" viewBox="0 0 80 16" fill="none" xmlns="http://www.w3.org/2000/svg">
<path d="M7.99984 11.3333L4.08129 13.7268L5.14669 9.26036L1.65948 6.27318L6.2365 5.90624L7.99984 1.66663L9.76324 5.90624L14.3402 6.27318L10.853 9.26036L11.9184 13.7268L7.99984 11.3333Z" fill="#EDCF5D"/>
<path d="M23.9998 11.3333L20.0813 13.7268L21.1467 9.26036L17.6595 6.27318L22.2365 5.90624L23.9998 1.66663L25.7632 5.90624L30.3402 6.27318L26.853 9.26036L27.9184 13.7268L23.9998 11.3333Z" fill="#EDCF5D"/>
<path d="M39.9998 11.3333L36.0813 13.7268L37.1467 9.26036L33.6595 6.27318L38.2365 5.90624L39.9998 1.66663L41.7632 5.90624L46.3402 6.27318L42.853 9.26036L43.9184 13.7268L39.9998 11.3333Z" fill="#EDCF5D"/>
<path d="M55.9998 11.3333L52.0813 13.7268L53.1467 9.26036L49.6595 6.27318L54.2365 5.90624L55.9998 1.66663L57.7632 5.90624L62.3402 6.27318L58.853 9.26036L59.9184 13.7268L55.9998 11.3333Z" fill="#EDCF5D"/>
<path d="M71.9998 9.77089L73.8776 10.9179L73.3671 8.77756L75.0382 7.34609L72.8448 7.17023L71.9998 5.13857V9.77089ZM71.9998 11.3333L68.0813 13.7268L69.1467 9.26036L65.6595 6.27318L70.2365 5.90624L71.9998 1.66663L73.7632 5.90624L78.3402 6.27318L74.853 9.26036L75.9184 13.7268L71.9998 11.3333Z" fill="#EDCF5D"/>
</svg>
